<svg xmlns="http://www.w3.org/2000/svg" id="Capa_1" enable-background="new 0 0 511.961 511.961" height="512" viewBox="0 0 511.961 511.961" width="512" class="cavani_w_fn_svg  replaced-svg"><g><path d="m489.965 120.063c0-5.77-3.31-11.028-8.512-13.524l-218.984-105.064c-4.102-1.967-8.875-1.967-12.977 0l-218.985 105.064c-5.202 2.496-8.511 7.755-8.511 13.524l-.003 271.834c0 5.77 3.31 11.028 8.512 13.524l218.989 105.065c2.051.983 4.27 1.475 6.488 1.475 2.219 0 4.438-.492 6.488-1.475l218.989-105.065c5.202-2.496 8.512-7.755 8.512-13.524zm-233.984 360.262-203.989-97.868.003-252.953 203.985-97.867 203.984 97.867.004 252.953z"></path><path d="m417.299 146.915-154.83-74.284c-4.102-1.967-8.875-1.967-12.977 0l-154.832 74.284c-5.202 2.496-8.511 7.755-8.511 13.525l-.002 191.081c0 5.77 3.31 11.028 8.512 13.524l154.833 74.285c2.051.983 4.27 1.476 6.488 1.476 2.219 0 4.438-.492 6.488-1.476l154.833-74.285c5.202-2.496 8.512-7.755 8.512-13.524l-.003-191.081c.001-5.77-3.308-11.028-8.511-13.525zm-161.318-44.122 120.156 57.648-120.156 57.647-120.156-57.647zm-139.832 81.483 124.832 59.89v157.808l-124.833-59.893zm154.832 217.697v-157.808l124.831-59.89.002 157.805z"></path></g></svg>