<svg xmlns="http://www.w3.org/2000/svg" id="Capa_1" enable-background="new 0 0 512 512" height="512" viewBox="0 0 512 512" width="512" class="cavani_w_fn_svg  replaced-svg"><g><path d="m512 406v-390h-512v390h195v60h-30v30h182v-30h-30v-60zm-482-30v-40h302v-30h-189.787l80.287-80.287 45 45 124.5-124.5v36.787h30v-90h-90v30h40.787l-105.287 105.287-45-45-122.713 122.713h-69.787v-260h452v330c-11.983 0-439.937 0-452 0zm257 90h-62v-60h62z"></path><path d="m362 306h30v30h-30z"></path><path d="m422 306h30v30h-30z"></path></g></svg>